<?xml version="1.0" encoding="UTF-8" standalone="no"?>
<svg xmlns="http://www.w3.org/2000/svg" width="200" height="200" viewBox="0 0 200 200">
  <defs>
    <!-- 3D sphere network effect -->
    <radialGradient id="sphereNetwork">
      <stop offset="0%" style="stop-color:#ffffff;stop-opacity:0.1"/>
      <stop offset="80%" style="stop-color:#00ffff;stop-opacity:0.2"/>
      <stop offset="100%" style="stop-color:#00ffff;stop-opacity:0"/>
    </radialGradient>
    
    <!-- Hexagon patterns at different depths -->
    <pattern id="hexPattern1" x="0" y="0" width="12" height="12" patternUnits="userSpaceOnUse">
      <path d="M6,0 L12,3 L12,9 L6,12 L0,9 L0,3 Z" 
            fill="none" stroke="#ffffff" stroke-width="0.5" opacity="0.4"/>
    </pattern>
    
    <pattern id="hexPattern2" x="2" y="2" width="10" height="10" patternUnits="userSpaceOnUse">
      <path d="M5,0 L10,2.5 L10,7.5 L5,10 L0,7.5 L0,2.5 Z" 
            fill="none" stroke="#00ffff" stroke-width="0.3" opacity="0.3"/>
    </pattern>
    
    <pattern id="hexPattern3" x="4" y="4" width="8" height="8" patternUnits="userSpaceOnUse">
      <path d="M4,0 L8,2 L8,6 L4,8 L0,6 L0,2 Z" 
            fill="none" stroke="#ffffff" stroke-width="0.2" opacity="0.2"/>
    </pattern>

    <!-- 3D nucleus gradients -->
    <radialGradient id="sphereGradient" cx="40%" cy="40%" r="60%">
      <stop offset="0%" style="stop-color:#ffffff"/>
      <stop offset="75%" style="stop-color:#e0e0e0"/>
      <stop offset="100%" style="stop-color:#b0b0b0"/>
    </radialGradient>
    
    <radialGradient id="sphereHighlight" cx="30%" cy="30%" r="40%">
      <stop offset="0%" style="stop-color:#ffffff"/>
      <stop offset="100%" style="stop-color:#ffffff;stop-opacity:0"/>
    </radialGradient>
  </defs>
  
  <!-- Tech-style atom with 3D sphere network -->
  <g transform="translate(100,100)">
    <!-- Black circle background -->
    <circle cx="0" cy="0" r="80" fill="#000000"/>
    
    <!-- 3D Network sphere layers -->
    <circle cx="0" cy="0" r="80" fill="url(#sphereNetwork)"/>
    <circle cx="0" cy="0" r="78" fill="url(#hexPattern1)"/>
    <circle cx="0" cy="0" r="76" fill="url(#hexPattern2)"/>
    <circle cx="0" cy="0" r="74" fill="url(#hexPattern3)"/>
    
    <!-- Sphere edge highlight -->
    <circle cx="0" cy="0" r="80" fill="none" stroke="#ffffff" stroke-width="0.5" opacity="0.5"/>
    <circle cx="0" cy="0" r="80" fill="none" stroke="#00ffff" stroke-width="0.3" opacity="0.3"/>
    
    <!-- Orbits with outline effect -->
    <!-- Orbit outlines (black) -->
    <ellipse cx="0" cy="0" rx="60" ry="22" 
             stroke="#000000" stroke-width="4" fill="none" transform="rotate(0,0,0)"
             stroke-dasharray="8,2"/>
    <ellipse cx="0" cy="0" rx="60" ry="22" 
             stroke="#000000" stroke-width="4" fill="none" transform="rotate(60,0,0)"
             stroke-dasharray="8,2"/>
    <ellipse cx="0" cy="0" rx="60" ry="22" 
             stroke="#000000" stroke-width="4" fill="none" transform="rotate(-60,0,0)"
             stroke-dasharray="8,2"/>
             
    <!-- Orbit inner lines (white) -->
    <ellipse cx="0" cy="0" rx="60" ry="22" 
             stroke="#FFF" stroke-width="2" fill="none" transform="rotate(0,0,0)"
             stroke-dasharray="8,2"/>
    <ellipse cx="0" cy="0" rx="60" ry="22" 
             stroke="#FFF" stroke-width="2" fill="none" transform="rotate(60,0,0)"
             stroke-dasharray="8,2"/>
    <ellipse cx="0" cy="0" rx="60" ry="22" 
             stroke="#FFF" stroke-width="2" fill="none" transform="rotate(-60,0,0)"
             stroke-dasharray="8,2"/>
    
    <!-- 3D nucleus -->
    <!-- Base shadow -->
    <circle cx="2" cy="2" r="25" fill="#000000" opacity="0.3"/>
    <!-- Main sphere -->
    <circle cx="0" cy="0" r="25" fill="url(#sphereGradient)" stroke="#000000" stroke-width="2"/>
    <!-- Highlight overlay -->
    <circle cx="0" cy="0" r="22" fill="url(#sphereHighlight)"/>
    <!-- Tech rings -->
    <circle cx="0" cy="0" r="20" fill="none" stroke="#00ffff" stroke-width="1" opacity="0.5"/>
    <circle cx="0" cy="0" r="15" fill="none" stroke="#00ffff" stroke-width="1" opacity="0.7"/>
    
    <!-- Connection points with outlines -->
    <circle cx="0" cy="-25" r="5" fill="#000000"/>
    <circle cx="0" cy="-25" r="4" fill="#00ffff"/>
    <circle cx="22" cy="12" r="5" fill="#000000"/>
    <circle cx="22" cy="12" r="4" fill="#00ffff"/>
    <circle cx="-22" cy="12" r="5" fill="#000000"/>
    <circle cx="-22" cy="12" r="4" fill="#00ffff"/>
  </g>
</svg>
